PathFileType	4	(X/Y/Z)	C:/Users/beibeiliu/ov580/test_trc/User1\sequence.37_training_dense_right.trc
DataRate	CameraRate	NumFrames	NumMarkers	Units	OrigDataRate	OrigDataStartFrame	OrigNumFrames
120	120	24	19	mm	120	1	243
Frame#	Time	ThumbCMC			ThumbMCP			ThumbIP			ThumbTip			IndexMCP			IndexPIP			IndexTip			MiddleMCP			MiddlePIP			MiddleTip			RingMCP			RingPIP			RingTip			PinkyMCP			PinkyPIP			PinkyTip			BackHand1			BackHand2			BackHand3	
		X0	Y0	Z0	X1	Y1	Z1	X2	Y2	Z2	X3	Y3	Z3	X4	Y4	Z4	X5	Y5	Z5	X6	Y6	Z6	X7	Y7	Z7	X8	Y8	Z8	X9	Y9	Z9	X10	Y10	Z10	X11	Y11	Z11	X12	Y12	Z12	X13	Y13	Z13	X14	Y14	Z14	X15	Y15	Z15	X16	Y16	Z16	X17	Y17	Z17	X18	Y18	Z18	
0	0	141.477	-59.8757	61.7973	110.274	-73.1228	56.4152	90.5459	-87.669	42.6389	73.3994	-99.2675	35.651	155.697	-87.3627	-18.1506	154.273	-98.1306	-45.7494	152.56	-105.019	-66.1665	188.441	-88.1935	-23.8485	186.711	-96.0609	-51.1296	193.497	-106.857	-79.2539	209.041	-92.7501	-13.2057	214.944	-97.5681	-40.2511	222.952	-104.742	-64.4418	229.308	-102.628	11.7725	243.199	-106.614	-1.51168	256.918	-103.323	-16.0977	205.197	-70.5659	31.9468	206.776	-49.1957	60.0004	172.903	-52.6861	42.0708	
1	0.00833333	139.77	-59.4793	58.0355	115.126	-71.3119	57.1738	91.7216	-85.1188	41.7729	71.4878	-92.6772	39.8873	154.948	-87.9247	-17.4106	151.122	-96.615	-44.7805	154.317	-107.97	-68.3726	184.131	-90.0417	-22.7794	185.277	-100.59	-54.2461	191.442	-111.644	-80.0201	206.139	-96.1027	-15.2753	217.289	-102.924	-35.7305	219.58	-110.874	-63.1947	226.661	-107.403	12.9846	241.943	-112.828	-1.27303	253.992	-111.436	-20.1811	205.273	-73.1861	32.6206	208.722	-52.4559	60.2063	174.108	-53.0068	38.9156	
2	0.0166667	142.146	-53.4799	62.5161	115.783	-68.0824	55.1658	91.3476	-77.5934	42.837	73.3951	-86.7027	37.0923	155.462	-87.4085	-17.5319	150.04	-95.2758	-40.5063	153.618	-107.833	-64.0876	184.534	-93.3283	-27.0037	184.196	-103.303	-52.9594	189.84	-117.51	-79.8022	207.921	-100.515	-12.4318	211.961	-107.528	-35.2898	217.791	-118.235	-60.1575	225.566	-112.043	12.6538	237.542	-120.519	2.39921	249.402	-120.062	-15.187	207.18	-76.3064	32.2706	214.292	-56.5826	58.0798	179.228	-52.4175	40.3447	
3	0.025	143.261	-50.9865	59.7713	116.244	-59.9618	56.8427	92.5692	-71.6583	40.1693	71.7371	-77.6562	36.1014	153.956	-84.4756	-15.8491	149.179	-96.1689	-44.0277	152.541	-109.231	-64.8325	187.604	-96.2852	-23.6956	185.965	-108.856	-52.1616	187.869	-124.154	-75.6644	205.648	-103.769	-13.5296	211.892	-113.967	-37.6357	213.411	-125.097	-59.3145	222.11	-117.619	15.1657	231.433	-127.586	5.03031	248.465	-132.482	-15.4731	206.048	-76.8091	32.0678	214.658	-60.077	62.299	178.105	-53.6438	37.7825	
4	0.0333333	145.277	-46.747	57.8724	119.068	-54.8143	54.3356	94.91	-62.3287	39.051	73.6871	-68.6387	32.1344	155.728	-84.6115	-19.5628	149.126	-93.1889	-41.2722	150.165	-110.151	-62.9924	182.704	-95.2474	-21.0272	180.964	-112.421	-50.8089	180.539	-127.297	-72.6324	202.555	-106.785	-7.81818	206.197	-119.048	-37.4211	209.656	-132.013	-59.0413	218.719	-122.667	19.7857	228.975	-136.818	3.47326	241.674	-145.625	-13.2098	207.281	-78.7838	36.419	219.544	-63.2138	62.9092	186.191	-54.3393	42.2073	
5	0.0416667	148.508	-45.1302	57.2456	123.081	-51.636	52.3306	101.018	-55.927	39.9852	79.4084	-59.1092	30.937	154.002	-81.9686	-18.1373	151.433	-97.1154	-42.083	142.624	-109.21	-64.8193	184.552	-98.673	-20.0896	181.335	-115.29	-45.8439	175.125	-132.366	-68.0167	200.736	-110.798	-10.5814	205.639	-124.91	-32.0931	201.612	-138.357	-52.8186	217.538	-129.312	19.2771	221.374	-140.559	7.00295	236.008	-156.291	-11.4735	210.983	-84.6326	36.2429	217.626	-66.5418	62.3695	188.101	-55.9369	39.6589	
6	0.05	152.797	-43.7525	57.9096	124.292	-43.618	51.3227	100.55	-46.1787	34.3353	80.7672	-47.8482	27.7063	156.372	-80.9959	-18.9362	147.147	-93.8557	-42.9947	144.444	-114.136	-60.9705	182.331	-97.9722	-21.9286	176.583	-116.732	-45.0755	168.943	-138.92	-65.6847	202.431	-114.767	-9.31946	201.746	-130.44	-30.9949	196.539	-146.967	-49.3751	211.993	-128.399	20.1866	217.7	-148.727	8.35377	223.748	-165.732	-11.3349	209.978	-80.8509	38.3236	216.866	-65.4587	65.372	188.404	-53.6784	40.7106	
7	0.0583333	155.457	-38.7889	60.8661	127.521	-39.9706	48.5034	105.894	-41.0974	31.2332	85.0403	-40.9996	20.0324	156.878	-77.6494	-21.2097	148.675	-97.344	-43.4568	139.462	-116.154	-61.129	181.816	-101.03	-23.018	171.599	-119.731	-44.9901	160.122	-146.856	-63.0939	199.228	-117.425	-10.0758	195.237	-135.443	-31.548	183.271	-149.786	-47.8257	208.718	-128.581	19.8122	208.471	-146.588	6.4954	209.476	-168.225	-12.3366	210.288	-81.8931	33.7312	219.034	-65.9353	67.2354	190.156	-49.4239	42.6175	
8	0.0666667	158.653	-39.8748	55.8465	130.62	-36.116	46.4602	112.164	-37.2109	28.5706	90.9762	-35.1403	16.6481	159.162	-77.789	-22.4139	148.76	-93.9343	-43.1675	139.127	-114.461	-55.0029	181.079	-99.5568	-22.7262	165.139	-121.526	-44.9397	149.454	-140.819	-55.0567	194.447	-112.567	-9.31431	185.209	-132.278	-30.6765	167.908	-153.832	-45.4288	204.141	-130.493	16.5566	196.801	-147.437	0.912598	190.691	-166.9	-12.7027	213.418	-85.0837	35.8245	220.636	-71.6509	65.5539	194.403	-51.5897	44.319	
9	0.075	161.093	-33.7163	59.8644	132.895	-32.9933	44.3614	115.749	-31.3075	25.6111	95.91	-29.2142	10.0034	162.754	-75.4352	-22.627	149.025	-88.0482	-41.1469	132.144	-113.352	-52.8294	176.622	-95.704	-26.544	158.283	-117.877	-43.8348	136.664	-136.087	-50.2984	191.057	-111.82	-10.4226	175.739	-129.525	-31.279	152.539	-147.575	-39.4021	199.093	-131.036	14.8165	187.39	-145.181	-1.72535	170.494	-157.865	-18.4187	208.25	-82.2244	38.0345	219.335	-74.1603	65.2885	198.965	-51.1309	45.1479	
10	0.0833333	164.419	-33.9123	56.9249	135.31	-27.2535	40.3446	117.208	-24.967	21.4494	100.152	-25.9447	4.56729	164.459	-67.3728	-21.1809	146.453	-86.1228	-43.8343	130.685	-108.655	-48.364	175.447	-93.7263	-25.3522	156.275	-112.577	-41.6019	126.548	-129.593	-42.9306	186.262	-112.282	-14.1927	167.388	-127.628	-31.3807	139.832	-140.824	-32.7495	192.692	-129.583	13.0886	177.582	-140.606	-3.86895	152.001	-150.8	-18.2154	208.419	-81.6509	39.3206	219.742	-72.5277	68.7744	198.14	-50.5967	46.4343	
11	0.0916667	165.6	-30.4014	60.3617	141.124	-29.1474	39.8598	122.197	-23.9979	14.0899	104.495	-21.8293	-2.37118	164.535	-63.8723	-24.5656	147.476	-83.0174	-43.4169	122.498	-101.009	-46.8663	175.007	-86.4124	-24.8256	149.812	-106.038	-42.8729	117.572	-117.148	-40.3918	182.407	-109.158	-15.2263	159.588	-124.25	-30.0432	127.424	-131.215	-26.3725	184.68	-124.468	6.55015	166.893	-138.083	-6.93988	141.621	-143.077	-15.5367	208.193	-85.4847	34.3313	217.221	-75.1337	67.7406	197.79	-47.9488	41.985	
12	0.1	167.613	-26.0427	57.509	143.917	-25.1382	36.3188	128.539	-21.6025	14.805	112.907	-18.7025	-3.99171	167.059	-60.4114	-28.4857	147.414	-77.8033	-43.6886	122.365	-88.0722	-45.9199	172.955	-84.5191	-30.1547	144.78	-101.83	-41.6438	113.968	-108.571	-34.458	177.85	-106.107	-17.2003	150.527	-121.023	-29.639	120.83	-120.301	-24.2575	181.483	-124.508	5.94293	161.489	-131.07	-7.96426	133.902	-130.535	-15.6149	209.002	-83.2812	34.6783	214.997	-76.9328	67.4931	203.037	-46.4882	45.186	
13	0.108333	172.687	-28.034	54.1838	147.968	-20.8479	32.8574	136.552	-18.4669	9.15775	120.698	-14.093	-7.71409	172.709	-59.8322	-25.0329	149.591	-73.9364	-43.3952	116.981	-82.0785	-43.1759	178.244	-85.4177	-25.8625	148.165	-95.0918	-41.6107	110.68	-98.9897	-30.7423	176.188	-107.101	-17.1509	149.348	-109.948	-30.1601	121.394	-113.305	-22.7753	179.885	-123.029	8.9957	155.338	-128.159	-7.90971	132.247	-120.993	-15.2203	208.065	-83.5537	38.8008	214.2	-78.7184	67.8179	205.968	-46.2999	46.0562	
14	0.116667	175.452	-24.5849	53.4081	152.19	-14.6764	32.7808	142.822	-13.4121	6.96604	129.066	-8.87092	-16.6434	174.767	-56.6954	-29.4951	148.604	-69.5818	-43.0997	119.861	-72.1202	-40.8621	177.293	-79.4851	-27.7134	148.824	-90.2333	-40.748	111.841	-88.4669	-29.0735	175.831	-105.52	-15.2908	144.031	-108.463	-29.3549	115.32	-102.87	-19.2031	176.551	-119.557	8.51852	154.327	-126.676	-7.31567	124.478	-112.151	-12.6428	207.52	-88.1798	39.2203	213.303	-77.7877	70.944	206.441	-49.2149	44.0036	
15	0.125	179.727	-21.9372	51.8825	158.057	-15.1036	30.3528	149.132	-8.85023	5.64522	137.604	-4.72424	-14.8555	178.217	-55.4825	-29.0401	149.595	-63.6317	-43.4802	120.261	-64.071	-38.7347	176.444	-80.656	-28.5593	144.257	-82.1119	-40.9051	113.023	-78.936	-28.4422	173.704	-100.136	-17.013	145.032	-107.569	-27.2702	114.457	-97.4631	-16.0618	172.722	-118.802	7.61126	148.989	-120.339	-6.96417	122.593	-102.877	-9.56811	207.658	-90.8918	41.4069	212.483	-84.002	70.9383	208.614	-50.7236	48.3934	
16	0.133333	181.386	-24.4015	52.4769	161.434	-12.1057	27.4441	154.481	-9.66834	0.0564763	142.904	-1.72298	-19.5169	178.418	-54.6853	-30.1659	150.73	-58.943	-43.584	118.026	-60.5799	-32.6284	178.755	-78.417	-27.1703	145.608	-79.344	-39.6069	113.473	-77.2259	-22.598	174.229	-98.9253	-13.4611	139.36	-99.7225	-26.0729	112.504	-88.0065	-12.4871	170.886	-117.323	8.92297	143.282	-112.208	-6.81331	120.081	-92.852	-4.75693	206.576	-89.3334	41.5188	210.904	-83.4342	74.6286	209.073	-52.1971	49.3865	
17	0.141667	183.025	-20.2804	49.3002	163.248	-13.8931	23.5667	155.458	-4.39123	1.58298	146.104	1.42956	-18.394	177.511	-54.5038	-30.5326	148.375	-57.995	-41.9153	119.659	-55.6972	-29.4695	174.523	-79.6454	-28.5453	140.218	-77.6424	-37.3547	111.817	-67.3979	-19.4015	170.259	-96.5994	-17.0162	134.519	-96.9316	-23.5795	114.125	-81.9186	-10.0457	166.517	-113.541	4.00682	139.604	-108.493	-6.25179	116.997	-90.6691	-1.87472	205.564	-90.1209	40.5304	209.494	-81.9873	75.5975	209.441	-48.7478	47.69	
18	0.15	183.32	-15.9793	52.4401	164.978	-10.3726	23.3962	156.868	-1.34782	1.54825	148.137	5.7243	-20.9004	178.513	-47.6721	-29.446	149.54	-53.2826	-40.9768	116.699	-52.5867	-24.175	173.905	-74.3513	-30.5499	142.797	-75.7272	-36.4897	111.785	-66.9765	-12.6102	170.127	-98.9634	-13.7263	137.472	-93.5371	-24.5012	114.025	-77.2846	-4.99914	167.248	-112.014	6.25088	138.349	-103.723	-6.47516	119.895	-85.9406	1.53413	204.76	-85.4142	37.43	206.277	-78.3926	72.1453	210.307	-50.9391	47.1371	
19	0.158333	184.447	-16.4867	48.9736	166.851	-11.4514	22.3396	159.297	-3.65442	1.16184	150.203	5.98902	-21.6356	178.821	-46.4819	-27.2613	147.374	-49.0977	-40.0418	119.466	-45.1991	-24.4519	171.727	-77.3919	-28.8713	138.51	-71.9391	-34.247	111.738	-60.6587	-8.89491	165.14	-95.9615	-17.488	134.097	-87.0003	-23.6442	114.101	-71.8482	0.645097	165.759	-108.91	5.95889	138.156	-103.043	-6.29835	121.328	-75.174	4.08066	203.766	-85.4625	34.9582	206.653	-81.0687	69.4704	209.964	-51.2454	48.7232	
20	0.166667	184.218	-20.0149	47.5292	166.867	-9.32706	25.5797	159.673	1.89665	-0.985192	152.105	3.09114	-22.5629	176.675	-49.8149	-28.6089	146.315	-45.8063	-39.5424	119.422	-42.2411	-20.4275	174.054	-72.6682	-27.8036	138.976	-70.164	-35.0516	112.458	-53.7262	-6.21837	164.067	-93.48	-18.1046	131.035	-83.692	-22.0351	114.244	-73.1616	1.0786	160.461	-112.196	4.45239	135.198	-103.011	-5.50392	118.921	-76.1114	7.55132	201.822	-90.3942	40.333	205.665	-83.1283	72.5008	209.289	-48.7217	42.3048	
21	0.175	185.321	-17.632	46.4028	166.76	-10.2947	20.7698	160.084	1.86794	-3.58865	150.792	6.76886	-21.2619	173.496	-47.0688	-31.598	146.392	-44.721	-39.8394	116.898	-38.9161	-14.9254	169.609	-72.6606	-29.3853	134.661	-62.6447	-33.2425	112.945	-52.555	-3.71207	160.292	-94.411	-18.5772	131.344	-84.684	-21.4471	113.541	-69.9877	2.8806	157.193	-110.095	1.22592	133.771	-97.0653	-6.10506	121.332	-71.5556	8.18047	201.354	-85.2505	38.6229	203.041	-81.4912	71.3133	209.101	-52.8281	46.1367	
22	0.183333	184.942	-17.9412	47.1477	166.173	-9.04635	24.467	160.991	0.0606945	-5.30802	151.024	7.04274	-24.3328	173.531	-44.8661	-31.6997	142.002	-43.4414	-36.4065	117.914	-39.6155	-13.8281	169.814	-73.8466	-25.9273	134.236	-65.4421	-31.1003	113.238	-50.3053	0.308617	161.82	-93.9272	-15.4889	129.207	-81.7423	-21.6148	112.765	-68.1882	5.26336	157.361	-105.925	0.12789	131.319	-97.6666	-5.88679	122.804	-67.3869	8.33431	200.055	-86.4776	34.098	201.417	-78.8546	72.7517	207.463	-52.23	42.8604	
23	0.191667	183.459	-14.5735	50.1765	164.838	-7.47014	24.1326	158.535	-1.4743	0.0508173	148.959	10.5763	-22.1371	175.436	-46.1728	-27.4113	141.469	-40.5398	-36.6194	118.125	-39.8334	-12.7082	170.215	-68.8111	-26.048	133.34	-63.2288	-30.1875	112.721	-50.2805	-2.03857	159.867	-90.5986	-15.882	125.001	-81.1746	-18.714	113.893	-61.7924	7.59527	156.274	-106.521	1.40127	134.229	-95.757	-7.71141	121.251	-69.4393	11.6354	196.751	-87.08	34.9633	202.24	-80.0733	73.1321	207.439	-50.1772	47.7062	
